# xmcd CD database file
#
# Track frame offsets:
#	150
#	22341
#	38524
#	60722
#	81479
#	105750
#	122480
#	148698
#	173371
#	195096
#
# Disc length: 2904 seconds
#
# Revision: 0
# Processed by: cddbd v1.5.2PL0 Copyright (c) Steve Scherf et al.
# Submitted via: CDex 1.70beta2
#
DISCID=740b560a
DTITLE=La-Duo - Promise
DYEAR=2008
DGENRE=Jazz
TTITLE0=01-Sunny
TTITLE1=02-Cheek to Cheek
TTITLE2=03-Promise
TTITLE3=04-Traver (여행)
TTITLE4=05-Antonio's Song
TTITLE5=06-Mr. M.C
TTITLE6=07-Calling You
TTITLE7=08-Traver (여행 Instrumental Version)
TTITLE8=09-Time After Time
TTITLE9=10-Promise (Instrumental Version)
EXTD=YEAR: 2008
EXTT0=
EXTT1=
EXTT2=
EXTT3=
EXTT4=
EXTT5=
EXTT6=
EXTT7=
EXTT8=
EXTT9=
PLAYORDER=
